<?xml version="1.0" encoding="UTF-8"?>
<svg version="1.1" xmlns="http://www.w3.org/2000/svg" width="1024" height="1024">
<path d="M0 0 C0.33 0.66 0.66 1.32 1 2 C1.99 1.67 2.98 1.34 4 1 C5.71744209 0.90730197 7.43826182 0.87208347 9.15820312 0.87060547 C10.20939331 0.86745331 11.2605835 0.86430115 12.34362793 0.86105347 C13.47804321 0.8630777 14.6124585 0.86510193 15.78125 0.8671875 C16.94628052 0.86623077 18.11131104 0.86527405 19.31164551 0.86428833 C21.77628636 0.86360744 24.240929 0.86545536 26.70556641 0.86962891 C30.48474137 0.8749784 34.26379749 0.86968078 38.04296875 0.86328125 C40.4348961 0.86394205 42.82682337 0.86522324 45.21875 0.8671875 C46.92037292 0.86415115 46.92037292 0.86415115 48.65637207 0.86105347 C50.23315735 0.86578171 50.23315735 0.86578171 51.84179688 0.87060547 C53.23054016 0.87179886 53.23054016 0.87179886 54.64733887 0.87301636 C57 1 57 1 60 2 C60.33 1.34 60.66 0.68 61 0 C61.495 0.495 61.495 0.495 62 1 C63.33614732 1.09741448 64.67738104 1.12631556 66.01707458 1.12698364 C67.3147879 1.13121338 67.3147879 1.13121338 68.63871765 1.13552856 C70.0733007 1.13249222 70.0733007 1.13249222 71.53686523 1.12939453 C73.03919205 1.13202301 73.03919205 1.13202301 74.5718689 1.13470459 C77.90079453 1.13912558 81.22966753 1.13618402 84.55859375 1.1328125 C86.86165884 1.13348552 89.16472385 1.13445553 91.4677887 1.13571167 C96.30250726 1.13718902 101.1372074 1.13503309 105.97192383 1.13037109 C112.18094826 1.12467698 118.38992945 1.12795058 124.59895229 1.13394356 C129.35745064 1.13755088 134.11593868 1.13640973 138.87443733 1.13381577 C141.16426664 1.13314681 143.45409687 1.13397384 145.74392509 1.13629532 C148.94055549 1.13882429 152.13711513 1.1349776 155.33374023 1.12939453 C156.76528694 1.13243088 156.76528694 1.13243088 158.22575378 1.13552856 C159.52769684 1.13129883 159.52769684 1.13129883 160.85594177 1.12698364 C161.61235679 1.12660662 162.3687718 1.12622959 163.14810848 1.12584114 C165.0951202 1.11308393 165.0951202 1.11308393 167 0 C167 0.66 167 1.32 167 2 C167.79019531 1.83757812 168.58039063 1.67515625 169.39453125 1.5078125 C173.85343794 0.87979747 178.1911867 0.85139731 182.6875 0.875 C183.57147461 0.87693359 184.45544922 0.87886719 185.36621094 0.88085938 C191.61668783 0.92214693 197.79489715 1.20301431 204 2 C204.33 1.34 204.66 0.68 205 0 C205 0.66 205 1.32 205 2 C206.3303125 1.7525 206.3303125 1.7525 207.6875 1.5 C214.17675782 0.56725247 221.74680208 -0.08439931 228 2 C228.33 1.34 228.66 0.68 229 0 C229.56879883 0.16371094 230.13759766 0.32742188 230.72363281 0.49609375 C233.051686 1.01144143 235.04181212 1.09897606 237.421875 1.0625 C238.27563721 1.05412109 239.12939941 1.04574219 240.0090332 1.03710938 C241.36581177 1.01874023 241.36581177 1.01874023 242.75 1 C251.88278586 0.93015685 260.89579438 1.2788748 270 2 C270.33 1.34 270.66 0.68 271 0 C271 0.66 271 1.32 271 2 C271.69476944 1.96970703 272.38953888 1.93941406 273.10536194 1.90820312 C291.36244968 1.14855255 309.59880251 0.91210094 327.87109375 0.9375 C328.97847523 0.93894012 330.0858567 0.94038025 331.2267952 0.94186401 C340.4553605 0.95589684 349.68388161 0.98281989 358.91241455 1.01037598 C366.91946869 1.03379378 374.92651121 1.05230834 382.93359375 1.0625 C384.04555807 1.06395838 385.15752239 1.06541676 386.3031826 1.06691933 C405.4532906 1.08258635 424.5794993 0.74015644 443.72040081 0.17159939 C492.94518985 -1.25826991 540.45089774 3.63163486 584.8737793 26.20629883 C590.15014793 28.84097499 590.15014793 28.84097499 596 29 C596 29.99 596 30.98 596 32 C598.410368 33.57090565 600.78702495 34.94929549 603.3125 36.3125 C629.08122361 50.86781527 652.92916774 71.55494253 671 95 C672.19496094 96.50433594 672.19496094 96.50433594 673.4140625 98.0390625 C703.30092864 135.87017055 721.89924678 181.04072671 727 229 C727.13148438 230.1859375 727.26296875 231.371875 727.3984375 232.59375 C728.97192234 249.43429047 727.96763723 266.2418143 726 283 C725.91411621 283.75039551 725.82823242 284.50079102 725.73974609 285.27392578 C721.22628333 322.46111897 705.36539244 359.04257686 683.05859375 388.9609375 C682.55255615 389.6413208 682.04651855 390.3217041 681.52514648 391.02270508 C680.52591732 392.3591161 679.51915986 393.6899387 678.50415039 395.0144043 C675.67797173 398.6013081 675.67797173 398.6013081 675 403 C676.35337252 405.09914219 676.35337252 405.09914219 678.25 407.3125 C679.34054687 408.63701172 679.34054687 408.63701172 680.453125 409.98828125 C683.80360612 413.95027656 687.17989044 417.88952276 690.56860352 421.81884766 C694.16965924 426.00215089 697.65989091 430.25755766 701.0859375 434.5859375 C706.88072146 441.89446095 712.86305714 449.04368092 718.90234375 456.15014648 C721.91018504 459.69502685 724.87515687 463.27120087 727.8125 466.875 C729.20824187 468.58340806 730.60406737 470.29174781 732 472 C732.60070312 472.73863281 733.20140625 473.47726562 733.8203125 474.23828125 C735.16883522 475.86367458 736.57760938 477.43883956 738 479 C738.66 479 739.32 479 740 479 C740.06058594 479.53367187 740.12117187 480.06734375 740.18359375 480.6171875 C741.3649639 484.06520563 743.68390586 486.4401915 746.0625 489.125 C747.07013395 490.28678691 748.07663557 491.44955682 749.08203125 492.61328125 C749.57912598 493.18643066 750.0762207 493.75958008 750.58837891 494.35009766 C752.53467861 496.62493221 754.3955149 498.96251397 756.25 501.3125 C759.69833526 505.66566704 763.29943551 509.85999347 767 514 C766.67 514.66 766.34 515.32 766 516 C761.50788929 517.06782084 757.12495428 517.12658498 752.52368164 517.12939453 C751.79897171 517.13114685 751.07426178 517.13289917 750.32759094 517.13470459 C747.93842139 517.13909238 745.54932653 517.13619067 743.16015625 517.1328125 C741.47505174 517.13348765 739.78994732 517.13445944 738.10484314 517.13571167 C734.5650846 517.13718554 731.0253513 517.13504863 727.4855957 517.13037109 C723.90061785 517.12585753 720.31569061 517.12575881 716.73071289 517.13037109 C705.86793169 517.14423592 695.00644868 517.1195528 684.14408112 517.01887512 C682.12690425 517.00111718 680.10968509 516.98836657 678.09246826 516.97595215 C674.82983592 516.94689513 671.57032308 516.88440138 668.30859375 516.8046875 C667.40722183 516.79946075 666.50584991 516.79423401 665.5771637 516.78884888 C661.28625359 516.63884212 659.53814283 516.43328279 656.09570312 513.66162109 C655.40412109 512.78328613 654.71253906 511.90495117 654 511 C653.49218994 510.41702148 652.98437988 509.83404297 652.46118164 509.23339844 C652.03184326 508.6974707 651.60250488 508.16154297 651.16015625 507.609375 C650.66201416 506.9913501 650.16387207 506.3733252 649.65063477 505.73657227 C648.86450806 504.75321899 648.86450806 504.75321899 648.0625 503.75 C646.90677322 502.31598441 645.75050514 500.88240494 644.59375 499.44921875 C644.00078125 498.71364746 643.4078125 497.97807617 642.796875 497.22021484 C639.90716588 493.64969654 636.9854424 490.10582201 634.0625 486.5625 C633.49200928 485.86922607 632.92151855 485.17595215 632.33374023 484.46166992 C629.2380093 480.70197989 626.12872622 476.95430616 623.00390625 473.21875 C622.35478271 472.43943115 621.70565918 471.6601123 621.03686523 470.85717773 C619.78389423 469.35332453 618.52702732 467.85270683 617.26586914 466.35571289 C616.70633545 465.6827417 616.14680176 465.00977051 615.5703125 464.31640625 C615.07289551 463.72287354 614.57547852 463.12934082 614.06298828 462.51782227 C613 461 613 461 613 459 C612.34 459 611.68 459 611 459 C611 458.34 611 457.68 611 457 C610.401875 457.474375 609.80375 457.94875 609.1875 458.4375 C607 460 607 460 604 461 C602.74301802 461.75814902 601.50803503 462.55323092 600.2890625 463.37109375 C546.93712329 498.52416478 489.46411231 501.17706503 427.63129914 501.11606562 C422.06590606 501.1116982 416.50051394 501.11321195 410.93511963 501.1139679 C401.32094479 501.11448919 391.7067768 501.11138391 382.09260368 501.10573006 C368.19256735 501.09756117 354.29253429 501.09499434 340.39249582 501.09374207 C317.83400884 501.09155997 295.27552581 501.0849315 272.71704102 501.07543945 C250.81925475 501.06623613 228.92146946 501.05916181 207.02368164 501.05493164 C206.34717435 501.05480011 205.67066707 501.05466859 204.97365956 501.05453308 C198.1791031 501.05321441 191.38454663 501.05193862 184.58999015 501.05069422 C127.72665755 501.04027587 70.86332896 501.02265055 14 501 C13.37257539 496.75300486 12.8688141 492.65347535 12.82299805 488.359375 C12.81016281 487.30137695 12.79732758 486.24337891 12.78410339 485.15332031 C12.77671646 484.03022461 12.76932953 482.90712891 12.76171875 481.75 C12.753647 480.57791992 12.74557526 479.40583984 12.73725891 478.19824219 C12.72347051 475.72722837 12.71272508 473.25619593 12.70483398 470.78515625 C12.69327773 468.26166188 12.67276915 465.73819263 12.64331055 463.21484375 C12.6006707 459.55972767 12.58447331 455.90533378 12.57421875 452.25 C12.55671066 451.1269043 12.53920258 450.00380859 12.52116394 448.84667969 C12.53926693 442.29994235 13.14921925 438.34681021 17 433 C17.45375 432.34 17.9075 431.68 18.375 431 C19.77483161 429.27713033 21.2111229 427.60403567 22.66796875 425.9296875 C26.23628941 421.77202394 29.59098104 417.46185295 32.9375 413.125 C34.11328125 411.60677083 35.2890625 410.08854167 36.46484375 408.5703125 C37.04814453 407.81588867 37.63144531 407.06146484 38.23242188 406.28417969 C42.23882614 401.1068429 46.26365438 395.94381639 50.2890625 390.78125 C56.05870035 383.37882522 61.80850574 375.96272427 67.5 368.5 C73.69274228 360.38137982 79.95569985 352.31875871 86.23388672 344.26611328 C89.15887581 340.5130377 92.07924184 336.7563685 95 333 C98.54568599 328.44047952 102.09199898 323.88145158 105.640625 319.32421875 C112.45536879 310.57092439 119.24718556 301.80116815 126 293 C132.24233341 284.8641588 138.51849483 276.75591816 144.81835938 268.66455078 C149.90460897 262.12924698 154.95892306 255.57020361 160 249 C168.56029249 237.84308546 177.19179077 226.74252453 185.83203125 215.64746094 C194.33888667 204.72243623 202.82905803 193.78587778 211.22265625 182.7734375 C217.06482226 175.11153904 222.95323734 167.50221976 229 160 C230.31785984 158.35845529 231.63052342 156.71272296 232.9375 155.0625 C233.50339844 154.35222656 234.06929687 153.64195312 234.65234375 152.91015625 C236.18062701 150.93897086 236.18062701 150.93897086 237 148 C238.65080159 146.31761786 240.32028066 144.65351096 242 143 C243.72272965 140.89353436 245.40557684 138.78129502 247.0625 136.625 C248.03057897 135.37838486 248.99935336 134.13230952 249.96875 132.88671875 C250.46632813 132.24653809 250.96390625 131.60635742 251.4765625 130.94677734 C253.97562301 127.75326636 256.52084966 124.59713471 259.0625 121.4375 C262.9808265 116.55392721 266.86230537 111.64443376 270.6875 106.6875 C271.3208728 105.86946899 271.3208728 105.86946899 271.96704102 105.03491211 C273.47442121 103.07195134 274.8903228 101.2193544 276 99 C183.93 99 91.86 99 -3 99 C-3 98.34 -3 97.68 -3 97 C-2.34 97 -1.68 97 -1 97 C-1.00222061 95.81427399 -1.00444122 94.62854797 -1.00672913 93.40689087 C-1.02696836 82.25267695 -1.04197593 71.09846675 -1.05181217 59.94423866 C-1.057039 54.20923728 -1.06413305 48.47425068 -1.07543945 42.73925781 C-1.08627539 37.20851877 -1.09227835 31.67779397 -1.09487724 26.14704514 C-1.09673021 24.03305207 -1.10034838 21.91905981 -1.10573006 19.80507278 C-1.11294983 16.85261578 -1.11399054 13.90021826 -1.11352539 10.94775391 C-1.11712067 10.0666243 -1.12071594 9.18549469 -1.12442017 8.27766418 C-1.11405216 2.22810432 -1.11405216 2.22810432 0 0 Z M361 144 C353.07210327 152.1783832 346.13480621 160.8345782 339.44287109 170.04101562 C338.41473556 171.43691402 337.36876391 172.81974921 336.31103516 174.19335938 C335.76108887 174.90814453 335.21114258 175.62292969 334.64453125 176.359375 C333.88619995 177.33342285 333.88619995 177.33342285 333.11254883 178.32714844 C331.81540853 179.94271742 331.81540853 179.94271742 332 182 C331.01 182.33 330.02 182.66 329 183 C327.11905843 185.16478937 327.11905843 185.16478937 325.1875 187.9375 C324.38981722 189.03256081 323.59020887 190.12622059 322.7890625 191.21875 C322.34852539 191.82074219 321.90798828 192.42273438 321.45410156 193.04296875 C318.71983875 196.72293025 315.88548287 200.32545156 313.0625 203.9375 C311.84616295 205.49724674 310.6300149 207.05714088 309.4140625 208.6171875 C308.53862793 209.74012207 308.53862793 209.74012207 307.64550781 210.88574219 C303.73912384 215.90492397 299.86801694 220.95121999 296 226 C295.47486816 226.68513672 294.94973633 227.37027344 294.40869141 228.07617188 C292.68846323 230.32110667 290.96906193 232.56667204 289.25 234.8125 C288.45323853 235.85289429 288.45323853 235.85289429 287.64038086 236.91430664 C286.60926212 238.26254394 285.58000579 239.61220789 284.55273438 240.96337891 C283.46699931 242.38746725 282.37393248 243.80598217 281.27539062 245.22021484 C280.72560547 245.93516113 280.17582031 246.65010742 279.609375 247.38671875 C279.10889648 248.03213623 278.60841797 248.67755371 278.09277344 249.3425293 C276.8165213 250.94741133 276.8165213 250.94741133 277 253 C276.34 253 275.68 253 275 253 C273.29401824 255.03530995 273.29401824 255.03530995 271.5 257.6875 C268.45370014 261.98201298 265.3486342 266.21106038 262.125 270.375 C261.70323486 270.9208374 261.28146973 271.4666748 260.84692383 272.02905273 C259.9880817 273.13983491 259.12878798 274.25026807 258.26904297 275.36035156 C256.23667429 277.98624383 254.21221237 280.61820208 252.1875 283.25 C251.77999512 283.77940186 251.37249023 284.30880371 250.95263672 284.85424805 C248.61996151 287.88654631 246.29344222 290.92343507 243.97265625 293.96484375 C238.34785133 301.33581301 232.7006258 308.6874513 227 316 C220.27755944 324.62442201 213.62976525 333.30423365 207 342 C200.30711928 350.77855019 193.59544847 359.54075669 186.8125 368.25 C178.36692266 379.09464926 178.36692266 379.09464926 170 390 C169.19949219 391.03511719 168.39898437 392.07023437 167.57421875 393.13671875 C166.45466797 394.61591797 166.45466797 394.61591797 165.3125 396.125 C164.31669922 397.42824219 164.31669922 397.42824219 163.30078125 398.7578125 C162.65689453 399.86769531 162.65689453 399.86769531 162 401 C162.495 402.485 162.495 402.485 163 404 C201.61 404 240.22 404 280 404 C278.19349864 399.48374659 276.59007645 396.92503164 273.625 393.1875 C272.73094952 392.04621583 271.83776105 390.90425601 270.9453125 389.76171875 C270.47125977 389.15763184 269.99720703 388.55354492 269.50878906 387.93115234 C266.80964221 384.47641908 264.14953406 380.99286038 261.5 377.5 C260.9838916 376.8299292 260.4677832 376.1598584 259.93603516 375.46948242 C254.79880569 368.6833818 254.79880569 368.6833818 254 365 C254.9140625 363.10546875 254.9140625 363.10546875 256.625 361.1875 C260.10227659 357.07983993 263.36334773 352.88674444 266.5625 348.5625 C270.90934572 342.7358186 275.33356908 336.97563067 279.8125 331.25 C285.52106932 323.9493203 291.10823401 316.56452312 296.65307617 309.13891602 C301.041096 303.26531148 305.48912329 297.44324142 309.98046875 291.6484375 C311.69217481 289.40368565 313.33184937 287.13335195 314.9375 284.8125 C317 282 317 282 320 280 C320.05607422 280.92727905 320.05607422 280.92727905 320.11328125 281.87329102 C320.58808634 287.99397088 321.78136065 293.22838983 324 298.9375 C324.30832764 299.74670898 324.61665527 300.55591797 324.93432617 301.38964844 C332.35314599 320.45872215 341.71838749 337.38082369 355 353 C355.72703125 353.86109375 356.4540625 354.7221875 357.203125 355.609375 C360.00946519 358.89137902 360.00946519 358.89137902 363 362 C363.66 362 364.32 362 365 362 C365 362.66 365 363.32 365 364 C383.52842619 381.54528521 407.69542938 395.97360369 432.95703125 400.4296875 C436 401 436 401 439.390625 402 C460.17865312 407.75945368 488.53444817 407.89423099 509 401 C510.09441406 400.84789062 511.18882812 400.69578125 512.31640625 400.5390625 C516.69716352 399.89797607 520.72788491 398.71837455 524.9375 397.375 C525.75710205 397.1157373 526.5767041 396.85647461 527.42114258 396.58935547 C535.53477133 393.94974662 543.27389916 390.60196149 551 387 C548.56280902 382.49505649 546.17095477 378.80130494 542.625 375.0625 C539.25046651 371.42155597 536.17259289 367.73003507 533.2890625 363.69140625 C531.97420178 361.96614961 530.53640463 360.52868401 529 359 C527.81506597 357.57752023 526.65057734 356.13790999 525.5 354.6875 C524.79875 353.80578125 524.0975 352.9240625 523.375 352.015625 C521.68070406 349.86431502 519.99316938 347.70876168 518.3125 345.546875 C513.63893732 339.54407401 508.9191581 333.68121044 503.8046875 328.04296875 C501.45598771 325.38415925 499.3240621 322.58810656 497.171875 319.76953125 C493.63523362 315.2596774 489.94410472 310.87693108 486.28173828 306.46899414 C481.86844725 301.12842676 477.6974234 295.66462488 473.671875 290.02734375 C473.12015625 289.35832031 472.5684375 288.68929687 472 288 C471.34 288 470.68 288 470 288 C469.61134766 286.88431641 469.61134766 286.88431641 469.21484375 285.74609375 C467.96157073 282.91313255 466.68614762 281.29210925 464.5625 279.0625 C460.82804837 275.00480854 457.38854846 270.78307332 454 266.4375 C453.50701416 265.80529541 453.01402832 265.17309082 452.50610352 264.52172852 C451.33513005 263.01625034 450.16722764 261.50838425 449 260 C452.81514754 258.76856572 456.60391399 258.86641567 460.56665039 258.88647461 C461.70146599 258.88625557 461.70146599 258.88625557 462.85920715 258.8860321 C465.35538621 258.88672768 467.85149025 258.8945054 470.34765625 258.90234375 C472.08353128 258.90420974 473.81940684 258.90563279 475.55528259 258.90663147 C480.12274635 258.91044694 484.69017823 258.9202661 489.25762939 258.93133545 C493.90677461 258.94155335 498.55592492 258.94613443 503.20507812 258.95117188 C511.37172085 258.96074468 519.53834318 258.97524272 527.70497131 258.99327087 C529.80331103 258.99755612 531.90165591 259 534 259 C541.66666667 259 549.33333333 259 557 259 C557.3000293 259.61915283 557.60005859 260.23830566 557.90917969 260.8762207 C559.1288719 263.25090793 560.56384528 265.11646213 562.25 267.1875 C562.96027344 268.06277344 563.67054688 268.93804688 564.40234375 269.83984375 C566.34760386 272.21137761 568.3005887 274.57650688 570.25390625 276.94140625 C570.83261475 277.64209229 571.41132324 278.34277832 572.00756836 279.06469727 C573.22025063 280.53294006 574.4333098 282.00087164 575.64672852 283.46850586 C579.85308917 288.56945475 583.95808635 293.7388903 588.015625 298.95849609 C591.62505071 303.57840082 595.38875491 308.05210473 599.20751953 312.49975586 C602.2933908 316.10931399 605.16967405 319.80798788 607.87890625 323.70703125 C608.24886719 324.13371094 608.61882812 324.56039062 609 325 C609.66 325 610.32 325 611 325 C621.76188674 304.95120593 629.31186536 282.94779425 630 260 C630.03996094 258.79472656 630.07992188 257.58945312 630.12109375 256.34765625 C630.63071652 225.86022327 622.94019254 196.07518939 607 170 C606.34 169.34 605.68 168.68 605 168 C604.484375 167.030625 603.96875 166.06125 603.4375 165.0625 C600.34148977 159.51740706 596.09601531 154.82171479 592 150 C591.39800781 149.28457031 590.79601562 148.56914062 590.17578125 147.83203125 C588.4833477 145.85555291 586.75493088 143.9211468 585 142 C584.39414062 141.32839844 583.78828125 140.65679687 583.1640625 139.96484375 C573.49496491 129.75857407 561.44765112 120.55332221 549 114 C548.39800781 113.68192383 547.79601562 113.36384766 547.17578125 113.03613281 C539.61715872 109.07041451 532.21514314 105.38674303 524 103 C522.85660156 102.61199219 521.71320313 102.22398437 520.53515625 101.82421875 C461.86250489 82.0304125 403.36194022 101.03575731 361 144 Z " fill="#48C2F0" transform="translate(148,267)"/>
<path d="M0 0 C1.32 0 2.64 0 4 0 C4 1.98 4 3.96 4 6 C3.67 5.34 3.34 4.68 3 4 C2.01 4 1.02 4 0 4 C0 2.68 0 1.36 0 0 Z " fill="#49BEE8" transform="translate(464,547)"/>
<path d="M0 0 C2.64 0 5.28 0 8 0 C8 0.33 8 0.66 8 1 C5.36 1 2.72 1 0 1 C0 0.67 0 0.34 0 0 Z " fill="#4CC0EA" transform="translate(415,367)"/>
<path d="M0 0 C1.65 0 3.3 0 5 0 C5 0.33 5 0.66 5 1 C3.35 1 1.7 1 0 1 C0 0.67 0 0.34 0 0 Z " fill="#4CBDE6" transform="translate(332,367)"/>
<path d="M0 0 C1.65 0 3.3 0 5 0 C5 0.33 5 0.66 5 1 C3.35 1 1.7 1 0 1 C0 0.67 0 0.34 0 0 Z " fill="#4BBDE6" transform="translate(313,367)"/>
<path d="M0 0 C4 1 4 1 4 1 Z " fill="#4AB9E4" transform="translate(279,367)"/>
<path d="M0 0 C4 1 4 1 4 1 Z " fill="#4BBBE4" transform="translate(266,367)"/>
<path d="M0 0 C4 1 4 1 4 1 Z " fill="#4AB9E4" transform="translate(232,367)"/>
<path d="M0 0 C4 1 4 1 4 1 Z " fill="#4AB8E1" transform="translate(198,367)"/>
<path d="M0 0 C4 1 4 1 4 1 Z " fill="#4AB3DD" transform="translate(180,367)"/>
<path d="M0 0 C0.33 0.66 0.66 1.32 1 2 C0.34 1.67 -0.32 1.34 -1 1 C-0.67 0.67 -0.34 0.34 0 0 Z " fill="#49B7E0" transform="translate(795,770)"/>
<path d="M0 0 C3 1 3 1 3 1 Z " fill="#4BB7DF" transform="translate(644,767)"/>
<path d="M0 0 C0.66 0.66 1.32 1.32 2 2 C1.34 2 0.68 2 0 2 C0 1.34 0 0.68 0 0 Z " fill="#4FBDE8" transform="translate(741,422)"/>
<path d="M0 0 C3 1 3 1 3 1 Z " fill="#47AED4" transform="translate(827,368)"/>
<path d="M0 0 C3 1 3 1 3 1 Z " fill="#4CC0EA" transform="translate(405,367)"/>
<path d="M0 0 C3 1 3 1 3 1 Z " fill="#4CC1EA" transform="translate(400,367)"/>
<path d="M0 0 C3 1 3 1 3 1 Z " fill="#4CBFE9" transform="translate(372,367)"/>
<path d="M0 0 C3 1 3 1 3 1 Z " fill="#4DC0E9" transform="translate(364,367)"/>
<path d="M0 0 C3 1 3 1 3 1 Z " fill="#4BBFE9" transform="translate(360,367)"/>
<path d="M0 0 C3 1 3 1 3 1 Z " fill="#4CBBE5" transform="translate(308,367)"/>
<path d="M0 0 C3 1 3 1 3 1 Z " fill="#4ABAE5" transform="translate(252,367)"/>
<path d="M0 0 C3 1 3 1 3 1 Z " fill="#4BBAE4" transform="translate(243,367)"/>
<path d="M0 0 C3 1 3 1 3 1 Z " fill="#49B9E3" transform="translate(228,367)"/>
<path d="M0 0 C3 1 3 1 3 1 Z " fill="#4ABAE3" transform="translate(224,367)"/>
<path d="M0 0 C3 1 3 1 3 1 Z " fill="#4AB8E1" transform="translate(204,367)"/>
<path d="M0 0 C3 1 3 1 3 1 Z " fill="#4AB5DF" transform="translate(194,367)"/>
<path d="M0 0 C3 1 3 1 3 1 Z " fill="#4EBEE7" transform="translate(641,364)"/>
<path d="M0 0 C0.66 0 1.32 0 2 0 C1.67 0.66 1.34 1.32 1 2 C0.67 1.34 0.34 0.68 0 0 Z " fill="#4AB2D9" transform="translate(758,306)"/>
<path d="M0 0 C2 1 2 1 2 1 Z " fill="#47B0D6" transform="translate(800,778)"/>
<path d="" fill="#4DBDE6" transform="translate(0,0)"/>
<path d="M0 0 C2 1 2 1 2 1 Z " fill="#4DC0E6" transform="translate(761,731)"/>
<path d="" fill="#4AB7E3" transform="translate(0,0)"/>
<path d="M0 0 C2 1 2 1 2 1 Z " fill="#49B1D8" transform="translate(177,680)"/>
<path d="" fill="#50C5EE" transform="translate(0,0)"/>
<path d="M0 0 C2 1 2 1 2 1 Z " fill="#51C4ED" transform="translate(367,669)"/>
<path d="M0 0 C2 1 2 1 2 1 Z " fill="#50C9EF" transform="translate(681,659)"/>
<path d="M0 0 C2 1 2 1 2 1 Z " fill="#4FC1EB" transform="translate(682,636)"/>
<path d="" fill="#4EC3EF" transform="translate(0,0)"/>
<path d="" fill="#4ABFE7" transform="translate(0,0)"/>
<path d="" fill="#4CBDE6" transform="translate(0,0)"/>
<path d="" fill="#48BAE4" transform="translate(0,0)"/>
<path d="M0 0 C2 1 2 1 2 1 Z " fill="#49BBE6" transform="translate(464,545)"/>
<path d="M0 0 C2 1 2 1 2 1 Z " fill="#4ABAE3" transform="translate(600,535)"/>
<path d="" fill="#46B8DD" transform="translate(0,0)"/>
<path d="" fill="#49BAE1" transform="translate(0,0)"/>
<path d="" fill="#48B1D7" transform="translate(0,0)"/>
<path d="" fill="#4DBEEA" transform="translate(0,0)"/>
<path d="M0 0 C2 1 2 1 2 1 Z " fill="#4EBDE8" transform="translate(680,375)"/>
<path d="M0 0 C2 1 2 1 2 1 Z " fill="#4BC0EA" transform="translate(396,367)"/>
<path d="M0 0 C2 1 2 1 2 1 Z " fill="#4BBDEB" transform="translate(352,367)"/>
<path d="M0 0 C2 1 2 1 2 1 Z " fill="#4CBCE7" transform="translate(341,367)"/>
<path d="M0 0 C2 1 2 1 2 1 Z " fill="#4DBCE6" transform="translate(324,367)"/>
<path d="M0 0 C2 1 2 1 2 1 Z " fill="#4ABCE8" transform="translate(304,367)"/>
<path d="M0 0 C2 1 2 1 2 1 Z " fill="#4BBAE5" transform="translate(301,367)"/>
<path d="M0 0 C2 1 2 1 2 1 Z " fill="#49BBE5" transform="translate(296,367)"/>
<path d="M0 0 C2 1 2 1 2 1 Z " fill="#4ABCE6" transform="translate(288,367)"/>
<path d="M0 0 C2 1 2 1 2 1 Z " fill="#4ABAE5" transform="translate(272,367)"/>
<path d="M0 0 C2 1 2 1 2 1 Z " fill="#4ABCE6" transform="translate(256,367)"/>
<path d="M0 0 C2 1 2 1 2 1 Z " fill="#4BBAE3" transform="translate(240,367)"/>
<path d="M0 0 C2 1 2 1 2 1 Z " fill="#49B9E2" transform="translate(216,367)"/>
<path d="M0 0 C2 1 2 1 2 1 Z " fill="#4CB8E1" transform="translate(212,367)"/>
<path d="M0 0 C2 1 2 1 2 1 Z " fill="#4AB8E1" transform="translate(208,367)"/>
<path d="M0 0 C2 1 2 1 2 1 Z " fill="#49B4DC" transform="translate(176,367)"/>
<path d="M0 0 C2 1 2 1 2 1 Z " fill="#49B3DD" transform="translate(172,367)"/>
<path d="M0 0 C2 1 2 1 2 1 Z " fill="#46ADD5" transform="translate(160,367)"/>
<path d="M0 0 C2 1 2 1 2 1 Z " fill="#409DC1" transform="translate(150,367)"/>
<path d="M0 0 C2 1 2 1 2 1 Z " fill="#4BB3DB" transform="translate(777,320)"/>
<path d="M0 0 C2 1 2 1 2 1 Z " fill="#48B5DA" transform="translate(756,305)"/>
<path d="" fill="#47A9CF" transform="translate(0,0)"/>
<path d="" fill="#4297B7" transform="translate(0,0)"/>
<path d="" fill="#081317" transform="translate(0,0)"/>
<path d="" fill="#04080A" transform="translate(0,0)"/>
<path d="" fill="#47ACD4" transform="translate(0,0)"/>
<path d="" fill="#47AED4" transform="translate(0,0)"/>
<path d="" fill="#3C8FB1" transform="translate(0,0)"/>
<path d="" fill="#3F9DBF" transform="translate(0,0)"/>
<path d="" fill="#49B3DB" transform="translate(0,0)"/>
<path d="" fill="#4AB3DC" transform="translate(0,0)"/>
<path d="" fill="#48B5DE" transform="translate(0,0)"/>
<path d="" fill="#48B7E0" transform="translate(0,0)"/>
<path d="" fill="#4CBADF" transform="translate(0,0)"/>
<path d="" fill="#49B4DD" transform="translate(0,0)"/>
<path d="" fill="#4096B7" transform="translate(0,0)"/>
<path d="" fill="#4AB7DD" transform="translate(0,0)"/>
<path d="" fill="#4AB8DF" transform="translate(0,0)"/>
<path d="" fill="#4CB7DE" transform="translate(0,0)"/>
<path d="" fill="#4CB6DE" transform="translate(0,0)"/>
<path d="" fill="#46ACD3" transform="translate(0,0)"/>
<path d="" fill="#48B6DD" transform="translate(0,0)"/>
<path d="" fill="#4AB6DF" transform="translate(0,0)"/>
<path d="" fill="#4EB8DE" transform="translate(0,0)"/>
<path d="" fill="#4CBCE7" transform="translate(0,0)"/>
<path d="" fill="#4DBEE7" transform="translate(0,0)"/>
<path d="" fill="#4CBDE8" transform="translate(0,0)"/>
<path d="" fill="#4BBAE6" transform="translate(0,0)"/>
<path d="" fill="#49B7E3" transform="translate(0,0)"/>
<path d="" fill="#4FBDE7" transform="translate(0,0)"/>
<path d="" fill="#47AFD3" transform="translate(0,0)"/>
<path d="" fill="#47B4DE" transform="translate(0,0)"/>
<path d="" fill="#4BB3DD" transform="translate(0,0)"/>
<path d="" fill="#4CBEE5" transform="translate(0,0)"/>
<path d="" fill="#47B0D7" transform="translate(0,0)"/>
<path d="" fill="#48B6DC" transform="translate(0,0)"/>
<path d="" fill="#4EC0E9" transform="translate(0,0)"/>
<path d="" fill="#4EBDE6" transform="translate(0,0)"/>
<path d="" fill="#4EC1EA" transform="translate(0,0)"/>
<path d="" fill="#4DBEE7" transform="translate(0,0)"/>
<path d="" fill="#4BB3DD" transform="translate(0,0)"/>
<path d="" fill="#4BB8E0" transform="translate(0,0)"/>
<path d="" fill="#47BBDD" transform="translate(0,0)"/>
<path d="" fill="#48B1D7" transform="translate(0,0)"/>
<path d="" fill="#4CBCE3" transform="translate(0,0)"/>
<path d="" fill="#49B4DA" transform="translate(0,0)"/>
<path d="" fill="#51C1EA" transform="translate(0,0)"/>
<path d="" fill="#4EC2EC" transform="translate(0,0)"/>
<path d="" fill="#52C5EE" transform="translate(0,0)"/>
<path d="" fill="#51C4EE" transform="translate(0,0)"/>
<path d="" fill="#51C3EE" transform="translate(0,0)"/>
<path d="" fill="#4EC2EB" transform="translate(0,0)"/>
<path d="" fill="#4FC1EA" transform="translate(0,0)"/>
<path d="" fill="#51C5ED" transform="translate(0,0)"/>
<path d="" fill="#51C3EE" transform="translate(0,0)"/>
<path d="" fill="#4DC1E7" transform="translate(0,0)"/>
<path d="" fill="#51C5EE" transform="translate(0,0)"/>
<path d="" fill="#51C5ED" transform="translate(0,0)"/>
<path d="" fill="#4FC3ED" transform="translate(0,0)"/>
<path d="" fill="#4CBFE6" transform="translate(0,0)"/>
<path d="" fill="#50C5ED" transform="translate(0,0)"/>
<path d="" fill="#4EC4EC" transform="translate(0,0)"/>
<path d="" fill="#4DB2DC" transform="translate(0,0)"/>
<path d="" fill="#52C3EC" transform="translate(0,0)"/>
<path d="" fill="#4EC1EA" transform="translate(0,0)"/>
<path d="" fill="#4EC2E8" transform="translate(0,0)"/>
<path d="" fill="#51C3E9" transform="translate(0,0)"/>
<path d="" fill="#49B3DA" transform="translate(0,0)"/>
<path d="" fill="#4FC3E9" transform="translate(0,0)"/>
<path d="" fill="#4CC0E9" transform="translate(0,0)"/>
<path d="" fill="#49B4DA" transform="translate(0,0)"/>
<path d="" fill="#4FC3EB" transform="translate(0,0)"/>
<path d="" fill="#51C5EB" transform="translate(0,0)"/>
<path d="" fill="#4CB5DA" transform="translate(0,0)"/>
<path d="" fill="#50C0EB" transform="translate(0,0)"/>
<path d="" fill="#4FC3ED" transform="translate(0,0)"/>
<path d="" fill="#4DC3EC" transform="translate(0,0)"/>
<path d="" fill="#4EC3ED" transform="translate(0,0)"/>
<path d="" fill="#49B6DF" transform="translate(0,0)"/>
<path d="" fill="#4EC0EB" transform="translate(0,0)"/>
<path d="" fill="#4FC2EB" transform="translate(0,0)"/>
<path d="" fill="#4DBFE9" transform="translate(0,0)"/>
<path d="" fill="#48B2D8" transform="translate(0,0)"/>
<path d="" fill="#51C0E9" transform="translate(0,0)"/>
<path d="" fill="#4AB7DE" transform="translate(0,0)"/>
<path d="" fill="#4BC0EB" transform="translate(0,0)"/>
<path d="" fill="#49B2DD" transform="translate(0,0)"/>
<path d="" fill="#4AB2D7" transform="translate(0,0)"/>
<path d="" fill="#4EC4EE" transform="translate(0,0)"/>
<path d="" fill="#49B4DA" transform="translate(0,0)"/>
<path d="" fill="#4AB1D9" transform="translate(0,0)"/>
<path d="" fill="#4EC0EB" transform="translate(0,0)"/>
<path d="" fill="#52C4EF" transform="translate(0,0)"/>
<path d="" fill="#54C9EF" transform="translate(0,0)"/>
<path d="" fill="#4EC1E8" transform="translate(0,0)"/>
<path d="" fill="#4EC6F0" transform="translate(0,0)"/>
<path d="" fill="#51C5EE" transform="translate(0,0)"/>
<path d="" fill="#4FBEEA" transform="translate(0,0)"/>
<path d="" fill="#55C6EE" transform="translate(0,0)"/>
<path d="" fill="#50C6EE" transform="translate(0,0)"/>
<path d="" fill="#51C3ED" transform="translate(0,0)"/>
<path d="" fill="#4DBEE8" transform="translate(0,0)"/>
<path d="" fill="#4EC0EA" transform="translate(0,0)"/>
<path d="" fill="#4FC0E8" transform="translate(0,0)"/>
<path d="" fill="#4BBDEB" transform="translate(0,0)"/>
<path d="" fill="#4BB4DC" transform="translate(0,0)"/>
<path d="" fill="#4DBDE6" transform="translate(0,0)"/>
<path d="" fill="#4DC1E7" transform="translate(0,0)"/>
<path d="" fill="#4EBEE8" transform="translate(0,0)"/>
<path d="" fill="#4FC1EA" transform="translate(0,0)"/>
<path d="" fill="#49B5DB" transform="translate(0,0)"/>
<path d="" fill="#4FC5EA" transform="translate(0,0)"/>
<path d="" fill="#47BEE7" transform="translate(0,0)"/>
<path d="" fill="#4CBEE8" transform="translate(0,0)"/>
<path d="" fill="#50C3EA" transform="translate(0,0)"/>
<path d="" fill="#51BCE6" transform="translate(0,0)"/>
<path d="" fill="#51C3EC" transform="translate(0,0)"/>
<path d="" fill="#4DBBE3" transform="translate(0,0)"/>
<path d="" fill="#4CBBE2" transform="translate(0,0)"/>
<path d="" fill="#48B7E3" transform="translate(0,0)"/>
<path d="" fill="#48B4DC" transform="translate(0,0)"/>
<path d="" fill="#50C1EB" transform="translate(0,0)"/>
<path d="" fill="#4CBEE8" transform="translate(0,0)"/>
<path d="" fill="#4CB6DD" transform="translate(0,0)"/>
<path d="" fill="#50C3E9" transform="translate(0,0)"/>
<path d="" fill="#49C0EA" transform="translate(0,0)"/>
<path d="" fill="#49B6DD" transform="translate(0,0)"/>
<path d="" fill="#4DC2E8" transform="translate(0,0)"/>
<path d="" fill="#47B1D4" transform="translate(0,0)"/>
<path d="" fill="#4DBDE3" transform="translate(0,0)"/>
<path d="" fill="#4AB0D8" transform="translate(0,0)"/>
<path d="" fill="#4BBBE1" transform="translate(0,0)"/>
<path d="" fill="#4BB8DE" transform="translate(0,0)"/>
<path d="" fill="#49BCE6" transform="translate(0,0)"/>
<path d="" fill="#49B4DC" transform="translate(0,0)"/>
<path d="" fill="#47B3D9" transform="translate(0,0)"/>
<path d="" fill="#47B3E1" transform="translate(0,0)"/>
<path d="" fill="#47B3DF" transform="translate(0,0)"/>
<path d="" fill="#4AB2D9" transform="translate(0,0)"/>
<path d="" fill="#51C2EB" transform="translate(0,0)"/>
<path d="" fill="#47BAE5" transform="translate(0,0)"/>
<path d="" fill="#48BBE0" transform="translate(0,0)"/>
<path d="" fill="#4AB2D9" transform="translate(0,0)"/>
<path d="" fill="#50C2EC" transform="translate(0,0)"/>
<path d="" fill="#51C3EF" transform="translate(0,0)"/>
<path d="" fill="#4CBBE2" transform="translate(0,0)"/>
<path d="" fill="#4BBCE4" transform="translate(0,0)"/>
<path d="" fill="#4ABEE6" transform="translate(0,0)"/>
<path d="" fill="#4EC2E8" transform="translate(0,0)"/>
<path d="" fill="#4EC0EA" transform="translate(0,0)"/>
<path d="" fill="#50C2EA" transform="translate(0,0)"/>
<path d="" fill="#4CB8E1" transform="translate(0,0)"/>
<path d="" fill="#50C2E8" transform="translate(0,0)"/>
<path d="" fill="#4CBEE7" transform="translate(0,0)"/>
<path d="" fill="#4BBCE4" transform="translate(0,0)"/>
<path d="" fill="#4CBBE4" transform="translate(0,0)"/>
<path d="" fill="#4DBBE8" transform="translate(0,0)"/>
<path d="" fill="#4AB9E4" transform="translate(0,0)"/>
<path d="" fill="#49B1D9" transform="translate(0,0)"/>
<path d="" fill="#4EBFE6" transform="translate(0,0)"/>
<path d="" fill="#50BFED" transform="translate(0,0)"/>
<path d="" fill="#4AB1D7" transform="translate(0,0)"/>
<path d="" fill="#4FBFEB" transform="translate(0,0)"/>
<path d="" fill="#51BFEB" transform="translate(0,0)"/>
<path d="" fill="#50BEE8" transform="translate(0,0)"/>
<path d="" fill="#4EBEE6" transform="translate(0,0)"/>
<path d="" fill="#4BBDE5" transform="translate(0,0)"/>
<path d="" fill="#4FBFE9" transform="translate(0,0)"/>
<path d="" fill="#49BCE5" transform="translate(0,0)"/>
<path d="" fill="#4EBEEA" transform="translate(0,0)"/>
<path d="" fill="#4FBEE8" transform="translate(0,0)"/>
<path d="" fill="#49B1D9" transform="translate(0,0)"/>
<path d="" fill="#4EBCE8" transform="translate(0,0)"/>
<path d="" fill="#4BB2DA" transform="translate(0,0)"/>
<path d="" fill="#49B3D8" transform="translate(0,0)"/>
<path d="" fill="#4DC3ED" transform="translate(0,0)"/>
<path d="" fill="#4BB2DD" transform="translate(0,0)"/>
<path d="" fill="#4DBFE7" transform="translate(0,0)"/>
<path d="" fill="#48B0D6" transform="translate(0,0)"/>
<path d="" fill="#51C2EB" transform="translate(0,0)"/>
<path d="" fill="#4DBDEB" transform="translate(0,0)"/>
<path d="" fill="#4DBBE9" transform="translate(0,0)"/>
<path d="" fill="#48BCE7" transform="translate(0,0)"/>
<path d="" fill="#49BEE7" transform="translate(0,0)"/>
<path d="" fill="#50BFE8" transform="translate(0,0)"/>
<path d="" fill="#4BBFE9" transform="translate(0,0)"/>
<path d="" fill="#4DC0EC" transform="translate(0,0)"/>
<path d="" fill="#49BFE8" transform="translate(0,0)"/>
<path d="" fill="#52C2EF" transform="translate(0,0)"/>
<path d="" fill="#48B0D7" transform="translate(0,0)"/>
<path d="" fill="#49BEE9" transform="translate(0,0)"/>
<path d="" fill="#4DBEE8" transform="translate(0,0)"/>
<path d="" fill="#4DBFED" transform="translate(0,0)"/>
<path d="" fill="#48B0D5" transform="translate(0,0)"/>
<path d="" fill="#4EBFEB" transform="translate(0,0)"/>
<path d="" fill="#4CBDE8" transform="translate(0,0)"/>
<path d="" fill="#47B1D7" transform="translate(0,0)"/>
<path d="" fill="#4CBDE7" transform="translate(0,0)"/>
<path d="" fill="#4FC1E9" transform="translate(0,0)"/>
<path d="" fill="#49AFD6" transform="translate(0,0)"/>
<path d="" fill="#4CBDE8" transform="translate(0,0)"/>
<path d="" fill="#4CC0E9" transform="translate(0,0)"/>
<path d="" fill="#4EC2EA" transform="translate(0,0)"/>
<path d="" fill="#4CBFE8" transform="translate(0,0)"/>
<path d="" fill="#4CBDEB" transform="translate(0,0)"/>
<path d="" fill="#4CC0EA" transform="translate(0,0)"/>
<path d="" fill="#4FC1EA" transform="translate(0,0)"/>
<path d="" fill="#4EBFEB" transform="translate(0,0)"/>
<path d="" fill="#4BBDE8" transform="translate(0,0)"/>
<path d="" fill="#4EC2E9" transform="translate(0,0)"/>
<path d="" fill="#4BBEE6" transform="translate(0,0)"/>
<path d="" fill="#4DBEE8" transform="translate(0,0)"/>
<path d="" fill="#4CBDE7" transform="translate(0,0)"/>
<path d="" fill="#4ABCE7" transform="translate(0,0)"/>
<path d="" fill="#4CBBE5" transform="translate(0,0)"/>
<path d="" fill="#4ABCE7" transform="translate(0,0)"/>
<path d="" fill="#4BBDE6" transform="translate(0,0)"/>
<path d="" fill="#4CBBE5" transform="translate(0,0)"/>
<path d="" fill="#4ABAE6" transform="translate(0,0)"/>
<path d="" fill="#4CBAE5" transform="translate(0,0)"/>
<path d="" fill="#4BBAE3" transform="translate(0,0)"/>
<path d="" fill="#4AB7E0" transform="translate(0,0)"/>
<path d="" fill="#4BB7E0" transform="translate(0,0)"/>
<path d="" fill="#4AB4DC" transform="translate(0,0)"/>
<path d="" fill="#45A9D0" transform="translate(0,0)"/>
<path d="" fill="#3F9CBF" transform="translate(0,0)"/>
<path d="" fill="#4CBDE7" transform="translate(0,0)"/>
<path d="" fill="#4EBFE9" transform="translate(0,0)"/>
<path d="" fill="#4CBFE9" transform="translate(0,0)"/>
<path d="" fill="#4DBDE5" transform="translate(0,0)"/>
<path d="" fill="#4EBBE6" transform="translate(0,0)"/>
<path d="" fill="#4FBEE8" transform="translate(0,0)"/>
<path d="" fill="#4EBFE9" transform="translate(0,0)"/>
<path d="" fill="#47ADD6" transform="translate(0,0)"/>
<path d="" fill="#49B2D9" transform="translate(0,0)"/>
<path d="" fill="#49B3DA" transform="translate(0,0)"/>
<path d="" fill="#47ADD7" transform="translate(0,0)"/>
<path d="" fill="#49B4D7" transform="translate(0,0)"/>
<path d="" fill="#48B2DA" transform="translate(0,0)"/>
<path d="" fill="#4BAED5" transform="translate(0,0)"/>
<path d="" fill="#49ADD5" transform="translate(0,0)"/>
<path d="" fill="#49B3DC" transform="translate(0,0)"/>
<path d="" fill="#4BACD5" transform="translate(0,0)"/>
<path d="" fill="#48B2D9" transform="translate(0,0)"/>
<path d="" fill="#49A7CF" transform="translate(0,0)"/>
<path d="" fill="#4BB6DC" transform="translate(0,0)"/>
<path d="" fill="#46A5CF" transform="translate(0,0)"/>
<path d="" fill="#4AB3DC" transform="translate(0,0)"/>
<path d="" fill="#47B0D4" transform="translate(0,0)"/>
<path d="" fill="#4BB1D6" transform="translate(0,0)"/>
<path d="" fill="#4AB7DB" transform="translate(0,0)"/>
<path d="" fill="#47A6CA" transform="translate(0,0)"/>
<path d="" fill="#4CB6DD" transform="translate(0,0)"/>
<path d="" fill="#4AB2DA" transform="translate(0,0)"/>
<path d="" fill="#49B4DA" transform="translate(0,0)"/>
<path d="" fill="#49B1DA" transform="translate(0,0)"/>
<path d="" fill="#47B0D9" transform="translate(0,0)"/>
<path d="" fill="#47B3DB" transform="translate(0,0)"/>
<path d="" fill="#46B3DB" transform="translate(0,0)"/>
<path d="" fill="#49B6DC" transform="translate(0,0)"/>
<path d="" fill="#49B4DD" transform="translate(0,0)"/>
<path d="" fill="#48B4DB" transform="translate(0,0)"/>
<path d="" fill="#49B3D8" transform="translate(0,0)"/>
<path d="" fill="#46B3DC" transform="translate(0,0)"/>
<path d="" fill="#48B6DC" transform="translate(0,0)"/>
<path d="" fill="#49B1DC" transform="translate(0,0)"/>
<path d="" fill="#49B3DB" transform="translate(0,0)"/>
<path d="" fill="#49B2DA" transform="translate(0,0)"/>
<path d="" fill="#49B1DA" transform="translate(0,0)"/>
<path d="" fill="#46B3DB" transform="translate(0,0)"/>
<path d="" fill="#4BB2D9" transform="translate(0,0)"/>
<path d="" fill="#49B3D8" transform="translate(0,0)"/>
<path d="" fill="#4AB3DA" transform="translate(0,0)"/>
<path d="" fill="#46AED2" transform="translate(0,0)"/>
<path d="" fill="#45AAD0" transform="translate(0,0)"/>
<path d="" fill="#3F9AB9" transform="translate(0,0)"/>
<path d="" fill="#46B0D8" transform="translate(0,0)"/>
<path d="" fill="#47B2DB" transform="translate(0,0)"/>
<path d="" fill="#47B4DD" transform="translate(0,0)"/>
<path d="" fill="#49B4DB" transform="translate(0,0)"/>
<path d="" fill="#3F92B5" transform="translate(0,0)"/>
<path d="" fill="#03060A" transform="translate(0,0)"/>
</svg>
